<?xml version="1.0" encoding="utf-8"?>
<!-- Generator: Adobe Illustrator 16.0.0, SVG Export Plug-In . SVG Version: 6.00 Build 0)  -->
<!DOCTYPE svg PUBLIC "-//W3C//DTD SVG 1.1//EN" "http://www.w3.org/Graphics/SVG/1.1/DTD/svg11.dtd">
<svg version="1.1" id="Layer_1" xmlns="http://www.w3.org/2000/svg"  x="0px" y="0px"
	 width="418.004px" height="455.861px" viewBox="0 0 418.004 455.861" enable-background="new 0 0 418.004 455.861"
	 xml:space="preserve">
<g>
	<path fill="#7EC31E" d="M192.878,442.58c-43.564,0-66.94-10.094-66.94-10.094l-13.282,23.375l-33.47-5.844l8.5-20.719
		c-161.505-143.974-50.47-269.353-50.47-269.353c-31.876-37.189,34.001-20.72,34.001-20.72s145.036,26.032,247.04,0
		c0,0,65.877-16.47,34.001,20.72c0,0,111.035,125.379-50.471,269.353l8.501,20.719l-33.471,5.844l-13.281-23.375
		c0,0-23.375,10.094-66.939,10.094H192.878z"/>
</g>
<ellipse fill="#7EC31E" cx="195.003" cy="140.82" rx="168.412" ry="43.032"/>
<ellipse opacity="0.62" fill="#ACDA42" enable-background="new    " cx="192.878" cy="129.663" rx="127.504" ry="23.907"/>
<path fill="#7EC31E" d="M269.911,145.601c40.377-44.626,80.753-89.784,121.129-134.941c4.781-5.313,10.626-11.157,17.532-10.626
	c1.594,0,3.188,0.531,4.781,1.594s2.656,3.188,3.188,4.782c5.845,15.938-6.906,31.876-19.125,43.563
	c-35.595,35.595-71.722,71.189-107.316,106.253c-1.063,1.063-2.656,1.595-4.25,2.657c-7.97,6.375-22.313-5.313-19.126-8.501
	L269.911,145.601z"/>
<path opacity="0.62" fill="#ACDA42" enable-background="new    " d="M318.788,156.757c0,0,87.659,93.504-5.844,232.695
	C312.413,389.453,442.573,260.355,318.788,156.757z"/>
<path opacity="0.62" fill="#ACDA42" enable-background="new    " d="M73.343,156.757c0,0-87.659,93.504,5.844,232.695
	C79.187,389.453-50.443,260.355,73.343,156.757z"/>
</svg>
