<?xml version="1.0" encoding="utf-8"?>
<svg version="1.1" id="Layer_1" xmlns="http://www.w3.org/2000/svg"  x="0px" y="0px"
	 width="324.655px" height="425.063px" viewBox="0 0 324.655 425.063" enable-background="new 0 0 324.655 425.063"
	 xml:space="preserve">
<path fill="#7EC31E" d="M323.661,55.832c5.313-33.47-12.219-55.252-15.938-55.783c-7.969-1.063-5.844,15.407-22.313,30.282
	c-7.969,7.438-20.188,16.469-30.281,19.657c-30.283,10.094-41.971-18.063-70.659-28.157c-21.251-7.438-45.688-7.969-71.721,4.781
	C94.153,35.644,79.81,51.05,76.622,71.239c-3.188,20.188,9.032,83.94,2.657,96.16c-6.907,12.219-14.875,18.594-28.157,22.313
	c-29.22,8.501-46.751-4.25-50.471,1.063c-5.313,6.907,23.376,35.064,32.938,43.033c10.625,8.5,37.72,19.656,51.002,20.72
	c21.782,2.125,44.626-3.188,65.877-9.032c10.094-2.656,20.72-9.031,31.345-10.094c10.095-0.531,23.376,1.594,30.282,9.031
	c8.5,9.563,10.094,21.251,6.906,34.001c-2.656,10.626-18.063,29.751-28.156,43.564c-4.25,6.375-7.97,20.719-4.25,27.626
	c5.844,10.625,12.75,15.406,26.031,25.501c6.906,5.313,4.781,19.125,1.063,27.094c-3.719,7.97-10.094,14.345-15.938,20.188
	l1.063,2.656c18.063-13.281,40.907-31.345,44.627-41.438c3.719-11.157,0.531-22.313-6.376-26.032
	c-7.438-4.25-19.126-8.5-13.813-15.407c15.938-22.313,80.222-71.189,80.222-98.284c0-7.438-5.313-17.531-9.031-30.282
	c-4.781-15.938-10.625-28.157,1.063-39.845c5.313-5.313,21.782-17.532,22.845-34.533c0.531-7.969-7.969-15.407-12.22-22.313
	c-5.844-9.032-3.719-22.845,3.188-30.813C317.817,74.426,321.536,66.988,323.661,55.832z M137.186,95.677
	c-3.719,7.438-13.282,10.094-21.782,7.969c-7.969-2.125-14.344-7.969-19.657-14.344c-1.594-2.125-3.188-4.25-3.719-6.375
	c-0.531-2.657,0.531-5.313,2.657-6.375c1.063-0.531,2.125-0.531,3.719-0.531c4.781,0,10.094,1.063,14.875,2.125
	c4.25,1.063,7.969,3.719,12.219,3.188c7.969-0.531,12.75-4.25,12.75-4.25C139.312,83.458,140.374,90.364,137.186,95.677z
	 M143.562,73.895c0,0,4.25-3.719,6.906-11.157c1.594-3.719,0-8.5,0-12.219c0-4.781,0-10.094,1.063-14.875
	c0-1.063,0.531-2.656,1.063-3.188c1.594-2.125,4.782-2.125,6.907-1.063s3.718,3.188,5.312,5.313
	c4.782,6.907,9.032,14.344,9.032,22.845c0,8.5-4.781,17-12.75,19.125C155.25,78.676,149.405,76.02,143.562,73.895z M181.281,142.429
	c-4.781,3.188-15.407-4.782-23.375-18.063c-7.969-12.75-10.625-26.032-5.313-29.22c4.782-3.188,15.407,4.782,23.376,18.063
	C183.938,125.959,186.595,139.241,181.281,142.429z"/>
</svg>
