<?xml version="1.0" encoding="utf-8"?>
<!-- Generator: Adobe Illustrator 16.0.0, SVG Export Plug-In . SVG Version: 6.00 Build 0)  -->
<!DOCTYPE svg PUBLIC "-//W3C//DTD SVG 1.1//EN" "http://www.w3.org/Graphics/SVG/1.1/DTD/svg11.dtd">
<svg version="1.1" id="Layer_1" xmlns="http://www.w3.org/2000/svg"  x="0px" y="0px"
	 width="148.039px" height="356.48px" viewBox="0 0 148.039 356.48" enable-background="new 0 0 148.039 356.48"
	 xml:space="preserve">
<path opacity="0.5" fill="#8BC63F" enable-background="new    " d="M45.219,265.633c7.97-7.969,18.595-12.219,25.501-20.72
	c6.907-8.5,11.157-20.719,5.845-30.813c-3.72-6.906-10.626-11.156-14.345-17.531c-4.781-9.563-0.531-20.72,6.375-28.688
	s16.47-12.751,24.438-19.126c14.875-11.688,27.095-31.345,20.188-49.408c-2.125-5.844-5.845-10.625-9.563-15.407
	c-7.438-9.563-14.875-19.657-22.844-29.22c-6.376-7.969-12.751-16.469-17.001-25.501C59.564,20.188,49.469,9.563,52.126,0
	c-1.063,4.781,33.47,43.033,44.626,51.533c6.375,4.781,29.22,18.063,35.063,23.376c14.345,13.281,20.72,32.407,12.751,50.47
	c-7.438,16.469-28.157,32.939-39.846,46.22c-4.25,4.781-7.969,10.094-8.5,16.47c-1.063,15.938,11.156,18.063,19.126,31.345
	c7.438,12.219,5.313,31.345-3.188,39.845c-8.501,7.969-20.188,12.75-31.345,15.938c-11.157,3.188-40.908,17.001-56.314,33.471
	C11.75,321.948-1,355.949,0.062,356.48C1.656,356.48-9.501,320.354,45.219,265.633z"/>
</svg>
