<?xml version="1.0" encoding="utf-8"?>
<!-- Generator: Adobe Illustrator 16.0.0, SVG Export Plug-In . SVG Version: 6.00 Build 0)  -->
<!DOCTYPE svg PUBLIC "-//W3C//DTD SVG 1.1//EN" "http://www.w3.org/Graphics/SVG/1.1/DTD/svg11.dtd">
<svg version="1.1" id="Layer_1" xmlns="http://www.w3.org/2000/svg"  x="0px" y="0px"
	 width="260.917px" height="332.042px" viewBox="0 0 260.917 332.042" enable-background="new 0 0 260.917 332.042"
	 xml:space="preserve">
<path opacity="0.5" fill="#8BC63F" enable-background="new    " d="M255.747,331.511c8.501-19.126,6.376-41.971-5.313-58.971
	c-2.125-3.188-4.781-6.376-7.969-7.97c-3.719-2.125-7.969-2.125-12.219-2.656c-21.782-1.063-57.908,5.313-79.159,1.063
	c-24.97-4.781-45.158-21.25-52.595-28.688c-14.875-14.875-24.438-28.688-32.408-48.345c-2.656-6.376-1.594-18.595,2.657-24.438
	c1.594-2.125,3.719-3.719,5.844-4.781c9.563-5.845,24.438-8.501,36.126-13.282c26.563-10.094,23.907-34.001,19.657-45.157
	c-4.25-11.688-13.282-19.126-20.188-29.22c-6.906-10.094-13.813-23.907-13.282-36.126C97.961,19.125,108.055,6.906,120.274,0
	C105.93,1.594,93.71,7.969,86.273,20.188c-6.907,12.219-5.313,32.407,5.844,54.721c5.844,11.157-1.063,28.157-19.657,34.532
	c-11.688,3.719-24.97,8.5-36.126,13.813c-23.907,10.625-38.251,40.908-36.126,66.409s18.063,45.157,41.439,56.314
	c9.563,4.781,20.188,10.094,28.688,16.469c11.157,7.969,21.782,17.001,27.094,29.751c3.719,9.563,9.563,21.251,19.657,20.72
	c4.25,0,7.969-2.656,12.219-4.781c7.968-3.719,16.469-5.844,24.438-7.97c12.22-3.188,24.97-5.844,37.188-9.031
	c13.813-3.188,29.752-4.781,41.971,1.594c14.344,7.438,19.656,23.376,22.313,39.314L255.747,331.511z"/>
</svg>
